<?xml version="1.0" encoding="UTF-8" standalone="no"?>
<!-- Created with Inkscape (http://www.inkscape.org/) -->

<svg
   width="418.30505mm"
   height="360.07742mm"
   viewBox="0 0 418.30505 360.07742"
   version="1.1"
   id="svg1"
   xml:space="preserve"
   xmlns:inkscape="http://www.inkscape.org/namespaces/inkscape"
   xmlns:sodipodi="http://sodipodi.sourceforge.net/DTD/sodipodi-0.dtd"
   xmlns="http://www.w3.org/2000/svg"
   xmlns:svg="http://www.w3.org/2000/svg"><sodipodi:namedview
     id="namedview1"
     pagecolor="#505050"
     bordercolor="#eeeeee"
     borderopacity="1"
     inkscape:showpageshadow="0"
     inkscape:pageopacity="0"
     inkscape:pagecheckerboard="0"
     inkscape:deskcolor="#d1d1d1"
     inkscape:document-units="mm" /><defs
     id="defs1" /><g
     inkscape:label="Layer 1"
     inkscape:groupmode="layer"
     id="layer1"
     transform="translate(104.22782,31.538699)"><g
       id="g17"
       transform="matrix(0.26458333,0,0,0.26458333,-185.55863,-122.61622)">&#10;	<g
   id="g13">&#10;		<path
   style="fill:#1f2937;fill-opacity:1"
   d="m 1791.141,591.66 5.953,-11.488 c 6.102,0.402 12.152,-2.754 15.148,-8.531 3.594,-6.945 1.563,-15.297 -4.434,-19.891 l 10.824,-20.894 5.48,-16.961 -10.438,14.391 -10.82,20.898 c -7.215,-2.246 -15.215,0.91 -18.805,7.852 -2.996,5.785 -2.078,12.547 1.777,17.301 l -5.953,11.496 c -76.07,-33.676 -182.16,27.024 -184.598,31.731 -0.555,1.063 1.926,3.644 6.945,7.438 -1.316,2.578 -3.402,6.606 -5.961,11.336 -3.504,-1.211 -7.457,0.273 -9.215,3.664 -1.672,3.234 -0.785,7.113 1.906,9.344 -7.074,12.082 -15.32,24.602 -21.527,29.336 -3.188,2.43 -15.301,4.77 -15.301,4.77 l 0.195,3.031 8.332,-2.602 -7.832,4.871 0.938,2.684 6.281,-3.902 -5.676,5.789 1.648,2.113 8.59,-8.773 -6.184,10.23 2.852,1.723 6.188,-10.227 -3.785,11.684 2.645,0.477 2.492,-7.719 -0.547,7.379 2.809,-0.414 0.691,-9.199 1.559,8.586 2.77,-1.227 -2.871,-15.773 18.016,-31.566 c 3.531,1.277 7.539,-0.195 9.32,-3.625 1.672,-3.238 0.785,-7.121 -1.918,-9.352 l 6.133,-10.762 c 4.242,3.051 9.805,6.723 16.48,10.906 -1.059,2.523 -2.43,5.652 -4.055,9.055 -3.727,-1.008 -7.684,0.91 -9.086,4.594 -1.168,3.074 -0.191,6.41 2.164,8.445 -3.5,5.816 -7.441,11.184 -11.484,14.488 -3.113,2.535 -15.145,5.273 -15.145,5.273 l 0.297,3.019 8.242,-2.867 -7.672,5.121 1.023,2.656 6.152,-4.117 -5.488,5.977 1.727,2.063 8.289,-9.047 -5.84,10.418 2.906,1.629 5.852,-10.418 -3.402,11.797 2.656,0.391 2.238,-7.789 -0.309,7.387 2.805,-0.504 0.379,-9.215 1.844,8.527 2.734,-1.324 -3.395,-15.668 8.086,-16.367 c 3.855,1.316 8.086,-0.629 9.551,-4.461 1.281,-3.379 -0.01,-7.094 -2.891,-9.012 l 4.223,-8.551 c 5.617,3.481 11.941,7.285 18.891,11.352 -1.102,2.371 -2.48,5.313 -4.066,8.586 -3.559,-1.051 -7.441,0.609 -9.035,4.074 -1.535,3.309 -0.477,7.141 2.313,9.242 -6.52,12.391 -14.195,25.266 -20.18,30.273 -3.078,2.574 -15.074,5.457 -15.074,5.457 l 0.332,3.016 8.203,-2.969 -7.609,5.219 1.059,2.637 6.105,-4.184 -5.414,6.039 1.746,2.039 8.195,-9.144 -5.723,10.496 2.918,1.59 5.715,-10.492 -3.242,11.836 2.652,0.359 2.152,-7.816 -0.219,7.395 2.789,-0.543 0.27,-9.219 1.957,8.504 2.711,-1.352 -3.586,-15.629 16.578,-32.34 c 3.59,1.113 7.531,-0.535 9.148,-4.039 1.527,-3.309 0.469,-7.152 -2.328,-9.254 l 4.23,-8.266 c 5.449,3.172 11.25,6.488 17.371,9.938 -0.867,2.008 -1.887,4.262 -3.023,6.652 -3.723,-1.008 -7.684,0.91 -9.082,4.594 -1.168,3.074 -0.199,6.41 2.152,8.441 -3.5,5.82 -7.434,11.184 -11.48,14.492 -3.109,2.535 -15.148,5.273 -15.148,5.273 l 0.305,3.019 8.238,-2.875 -7.664,5.129 1.023,2.656 6.148,-4.113 -5.484,5.973 1.715,2.059 8.309,-9.043 -5.852,10.418 2.906,1.629 5.844,-10.422 -3.395,11.801 2.652,0.391 2.238,-7.789 -0.301,7.387 2.805,-0.504 0.371,-9.219 1.848,8.527 2.73,-1.32 -3.398,-15.668 8.094,-16.363 c 3.855,1.313 8.086,-0.633 9.547,-4.473 1.281,-3.371 0,-7.086 -2.883,-9.012 l 3.125,-6.328 c 5.52,3.098 11.273,6.289 17.242,9.555 -0.961,2.074 -2.113,4.484 -3.379,7.102 -3.555,-1.047 -7.438,0.609 -9.031,4.074 -1.531,3.309 -0.484,7.141 2.32,9.25 -6.527,12.387 -14.203,25.262 -20.191,30.269 -3.078,2.578 -15.07,5.461 -15.07,5.461 l 0.332,3.012 8.207,-2.973 -7.609,5.223 1.059,2.637 6.102,-4.18 -5.418,6.035 1.746,2.039 8.191,-9.144 -5.719,10.492 2.922,1.594 5.719,-10.492 -3.246,11.836 2.652,0.363 2.148,-7.824 -0.211,7.394 2.793,-0.535 0.262,-9.223 1.949,8.508 2.711,-1.355 -3.578,-15.625 16.578,-32.348 c 3.582,1.121 7.527,-0.531 9.145,-4.031 1.527,-3.316 0.469,-7.156 -2.328,-9.262 l 3.523,-6.887 c 5.91,3.223 12.023,6.52 18.297,9.863 -0.773,1.754 -1.648,3.672 -2.602,5.684 -3.734,-1.016 -7.688,0.902 -9.09,4.59 -1.168,3.074 -0.191,6.414 2.16,8.441 -3.5,5.82 -7.434,11.184 -11.488,14.492 -3.105,2.531 -15.141,5.277 -15.141,5.277 l 0.297,3.016 8.242,-2.871 -7.664,5.129 1.023,2.648 6.145,-4.109 -5.48,5.977 1.727,2.055 8.293,-9.039 -5.844,10.418 2.898,1.629 5.848,-10.426 -3.391,11.797 2.652,0.395 2.238,-7.793 -0.301,7.387 2.797,-0.504 0.379,-9.211 1.848,8.527 2.723,-1.324 -3.391,-15.668 8.09,-16.363 c 3.863,1.313 8.09,-0.633 9.551,-4.469 1.281,-3.375 -0.01,-7.086 -2.883,-9.012 l 2.684,-5.438 c 5.387,2.859 10.867,5.762 16.469,8.68 l -92.266,178.168 c 4.801,2.551 9.551,5.188 14.23,7.926 l 92.488,-178.605 c 5.625,2.887 11.156,5.699 16.598,8.441 l -2.891,5.332 c -3.234,-1.246 -7.008,-0.156 -9.027,2.844 -2.289,3.406 -1.43,7.984 1.867,10.379 l -8.703,16.047 -14.75,6.27 0.492,2.992 8.035,-3.418 -7.313,5.629 1.199,2.578 5.859,-4.508 -5.066,6.324 1.848,1.941 7.676,-9.578 -5.133,10.789 3.008,1.43 5.133,-10.785 -2.598,11.996 2.672,0.211 1.715,-7.926 0.191,7.395 2.758,-0.688 -0.242,-9.223 2.414,8.387 2.637,-1.5 c 0,0 -4.707,-11.41 -4.43,-15.406 0.363,-5.219 2.473,-11.527 5.207,-17.746 3.02,0.75 6.309,-0.379 8.137,-3.105 2.203,-3.274 1.488,-7.609 -1.488,-10.07 1.09,-1.945 2.156,-3.766 3.137,-5.406 6.359,3.191 12.57,6.277 18.617,9.246 l -3.586,6.859 c -3.34,-1.074 -7.086,0.277 -8.906,3.441 -1.926,3.336 -1.004,7.508 1.977,9.793 l -16.855,32.203 -14.824,6.094 0.461,2.996 8.07,-3.316 -7.371,5.539 1.168,2.594 5.91,-4.445 -5.145,6.269 1.828,1.961 7.797,-9.484 -5.277,10.727 2.992,1.465 5.27,-10.727 -2.742,11.969 2.672,0.246 1.805,-7.906 0.102,7.395 2.773,-0.656 -0.133,-9.223 2.313,8.414 2.652,-1.465 c 0,0 -4.57,-11.465 -4.242,-15.457 0.637,-7.785 6.723,-21.481 13.07,-33.957 3.34,1.063 7.078,-0.281 8.891,-3.438 1.914,-3.309 1.031,-7.441 -1.879,-9.738 1.402,-2.543 2.719,-4.875 3.852,-6.855 6.113,2.992 12.039,5.844 17.746,8.57 l -3.359,6.203 c -3.234,-1.242 -7.008,-0.152 -9.023,2.848 -2.293,3.402 -1.445,7.984 1.855,10.375 l -8.695,16.047 -14.758,6.273 0.5,2.984 8.027,-3.41 -7.305,5.629 1.199,2.578 5.859,-4.516 -5.074,6.332 1.859,1.941 7.672,-9.582 -5.133,10.789 3,1.43 5.141,-10.781 -2.594,11.992 2.664,0.215 1.727,-7.926 0.18,7.391 2.766,-0.691 -0.242,-9.219 2.41,8.387 2.641,-1.5 c 0,0 -4.711,-11.41 -4.438,-15.406 0.363,-5.223 2.48,-11.523 5.215,-17.742 3.016,0.746 6.305,-0.383 8.141,-3.113 2.191,-3.273 1.48,-7.605 -1.492,-10.066 1.289,-2.309 2.551,-4.441 3.68,-6.313 6.355,3.012 12.41,5.836 18.148,8.457 l -4.305,8.227 c -3.34,-1.074 -7.086,0.281 -8.91,3.438 -1.93,3.34 -1,7.516 1.984,9.793 l -16.852,32.207 -14.828,6.086 0.465,3.008 8.066,-3.32 -7.375,5.539 1.176,2.59 5.91,-4.441 -5.152,6.269 1.828,1.961 7.801,-9.48 -5.273,10.719 2.984,1.469 5.27,-10.727 -2.738,11.969 2.668,0.246 1.809,-7.902 0.102,7.391 2.766,-0.652 -0.129,-9.227 2.313,8.414 2.656,-1.469 c 0,0 -4.57,-11.461 -4.246,-15.457 0.637,-7.777 6.723,-21.477 13.082,-33.953 3.328,1.063 7.066,-0.285 8.887,-3.441 1.906,-3.309 1.027,-7.434 -1.887,-9.734 1.754,-3.18 3.359,-6.008 4.668,-8.273 7.324,3.324 14.086,6.297 20.164,8.875 l -4.539,8.383 c -3.238,-1.246 -7.008,-0.156 -9.031,2.844 -2.285,3.402 -1.434,7.984 1.863,10.375 l -8.699,16.047 -14.754,6.273 0.492,2.988 8.031,-3.414 -7.305,5.629 1.203,2.578 5.859,-4.516 -5.074,6.328 1.852,1.938 7.68,-9.574 -5.137,10.785 3.008,1.434 5.137,-10.789 -2.598,12 2.668,0.211 1.719,-7.922 0.191,7.391 2.758,-0.691 -0.242,-9.219 2.41,8.387 2.645,-1.496 c 0,0 -4.711,-11.414 -4.434,-15.41 0.363,-5.215 2.477,-11.523 5.211,-17.75 3.016,0.758 6.301,-0.375 8.137,-3.102 2.199,-3.277 1.484,-7.609 -1.492,-10.07 1.84,-3.289 3.605,-6.219 5.055,-8.539 7.27,3.039 13.484,5.457 18.41,7.164 l -5.238,11.226 c -3.391,-0.93 -7.07,0.594 -8.746,3.832 -1.773,3.422 -0.66,7.547 2.422,9.703 l -15.387,32.922 -14.539,6.75 0.59,2.977 7.914,-3.672 -7.121,5.867 1.289,2.531 5.711,-4.703 -4.863,6.492 1.918,1.875 7.352,-9.824 -4.781,10.949 3.055,1.336 4.777,-10.957 -2.203,12.082 2.684,0.125 1.453,-7.977 0.434,7.379 2.73,-0.777 -0.539,-9.207 2.688,8.301 2.582,-1.586 c 0,0 -5.07,-11.246 -4.93,-15.254 0.285,-7.797 5.746,-21.762 11.539,-34.504 3.379,0.918 7.047,-0.602 8.723,-3.836 1.762,-3.391 0.691,-7.473 -2.32,-9.641 2.383,-4.816 4.473,-8.852 5.82,-11.406 5.992,1.906 9.531,2.445 10.086,1.379 2.426,-4.718 -9.211,-126.393 -80.613,-169.089 z"
   id="path1" />&#10;		<path
   style="fill:#1f2937;fill-opacity:1"
   d="m 646.887,768.984 12.664,-6.621 v -7.836 h -13.566 c -3.551,-3.828 -15.168,-15.969 -27.445,-24.695 V 712.957 H 475.86 v 16.875 c -12.277,8.727 -23.895,20.867 -27.445,24.695 h -13.566 v 7.836 l 0.898,0.469 c 2.688,0.641 5.379,1.348 8.082,2.234 4.043,1.332 7.027,2.559 9.219,3.918 h 29.57 v 16.805 h -6.758 v 33.144 c 0.094,0 0.176,0.012 0.27,0.012 3.797,-0.02 16.953,-5.887 19.641,-8.723 4.797,-5.059 2.328,-11.664 9.813,-15.531 6.465,-3.34 11.625,-0.289 17.762,0.652 8.547,1.317 10.019,0.629 17.394,-5.035 8.371,-6.43 28.309,-15.066 24.656,4.481 -7.953,3.246 -17.332,1.383 -23.902,8.273 -4.273,4.488 -7.539,18.027 1.766,18.566 0.211,-0.867 0.402,-1.738 0.574,-2.617 13.551,-3.867 20.215,1.359 32.84,2.438 12.973,1.109 24.656,-8.231 37.727,-7.91 1.441,0.039 2.805,0.215 4.141,0.445 v -28.195 h -6.758 v -16.805 z"
   id="path2" />&#10;		<path
   style="fill:#1f2937;fill-opacity:1"
   d="m 512.902,374.211 v 3.066 h 3.949 v 1.543 h 60.695 v -1.543 h 3.953 v -3.066 h 1.066 l 4.496,-2.348 v -2.777 h -4.816 c -1.262,-1.363 -5.379,-5.672 -9.734,-8.766 v -11.117 h 3.297 V 344.23 H 518.59 v 4.973 h 3.297 v 11.117 c -4.351,3.094 -8.476,7.402 -9.734,8.766 h -4.816 v 2.777 l 4.496,2.348 z"
   id="path3" />&#10;		<path
   style="fill:#1f2937;fill-opacity:1"
   d="m 506.078,407.262 v 5.273 h 4.742 v 6.098 h 72.762 v -6.098 h 4.738 v -5.273 h 1.281 l 5.391,-2.82 v -3.332 h -5.773 c -1.512,-1.629 -6.453,-6.793 -11.672,-10.508 v -4.672 h -60.695 v 4.672 c -5.219,3.715 -10.16,8.879 -11.672,10.508 h -5.77 v 3.332 l 5.387,2.82 z"
   id="path4" />&#10;		<path
   style="fill:#1f2937;fill-opacity:1"
   d="m 498.375,448.477 v 4.363 H 504 v 5.602 h 86.398 v -5.602 h 5.625 v -4.363 h 2.012 l 6.461,-3.379 v -3.992 h -6.922 c -1.809,-1.957 -7.734,-8.145 -13.992,-12.598 V 423.61 H 510.82 v 4.898 c -6.258,4.453 -12.184,10.641 -13.996,12.598 h -6.918 v 3.992 l 6.461,3.379 z"
   id="path5" />&#10;		<path
   style="fill:#1f2937;fill-opacity:1"
   d="m 490.871,495.52 v 5.031 h 6.492 v 5.527 h 99.676 v -5.527 h 6.488 v -5.031 h 4.031 l 7.672,-4.008 v -4.746 h -8.215 c -2.152,-2.32 -9.188,-9.668 -16.617,-14.953 v -8.391 H 504 v 8.391 c -7.43,5.285 -14.465,12.633 -16.617,14.953 h -8.215 v 4.746 l 7.672,4.008 z"
   id="path6" />&#10;		<path
   style="fill:#1f2937;fill-opacity:1"
   d="m 481.172,549.789 v 9.066 h 7.609 v 7.648 h 116.836 v -7.648 h 7.609 v -9.066 h 3.609 l 8.848,-4.625 v -5.477 h -9.473 c -2.484,-2.676 -10.598,-11.152 -19.172,-17.254 v -8.539 h -99.676 v 8.539 c -8.574,6.102 -16.691,14.578 -19.172,17.254 h -9.477 v 5.477 l 8.852,4.625 z"
   id="path7" />&#10;		<path
   style="fill:#1f2937;fill-opacity:1"
   d="m 475.199,616.566 v 7.832 h 8.301 v 4.672 h 127.402 v -4.672 h 8.297 v -7.832 h 9.629 l 10.371,-5.418 v -6.422 H 628.09 c -2.91,-3.133 -12.422,-13.07 -22.473,-20.223 V 572.905 H 488.781 v 11.598 c -10.047,7.152 -19.563,17.09 -22.469,20.223 h -11.109 v 6.422 l 10.371,5.418 z"
   id="path8" />&#10;		<path
   style="fill:#1f2937;fill-opacity:1"
   d="m 466.566,687.332 v 11.172 h 9.293 v 7.344 h 142.68 v -7.344 h 9.293 v -11.172 h 8.379 l 11.309,-5.91 v -7 h -12.113 c -3.172,-3.418 -13.547,-14.258 -24.504,-22.055 V 636.176 H 483.5 v 16.191 c -10.961,7.797 -21.336,18.637 -24.508,22.055 h -12.113 v 7 l 11.309,5.91 z"
   id="path9" />&#10;		<path
   style="fill:#1f2937;fill-opacity:1"
   d="m 843.617,495.926 c -1.738,-1.078 -3.77,-1.727 -5.965,-1.727 -6.277,0 -11.363,5.086 -11.363,11.359 0,4.895 3.094,9.047 7.43,10.648 v 13.504 h -6.516 c -0.117,-2.309 -2.598,-2.707 -3.195,-4.301 -1.191,-3.199 0.527,-4.836 2.023,-4.914 1.84,-0.094 3.129,1.574 2.281,3.707 3.527,-2.586 0.453,-6.379 -2.281,-6.379 -4.172,0 -7.555,5.262 -7.555,9.426 v 0.016 c -1.605,0.047 -2.895,1.355 -2.895,2.969 0,0.641 0.203,1.23 0.551,1.715 h -4.25 c -0.203,-4.02 -4.535,-4.715 -5.57,-7.492 -2.082,-5.574 0.918,-8.426 3.519,-8.563 3.215,-0.168 5.457,2.742 3.981,6.457 6.156,-4.508 0.793,-11.117 -3.981,-11.117 -7.262,0 -13.172,9.168 -13.172,16.434 l 0.004,0.027 c -2.801,0.078 -5.047,2.359 -5.047,5.172 0,2.871 2.324,5.195 5.191,5.195 l 1.309,-0.188 v 16.461 h 17.465 v 33.856 h -13.977 c -0.242,-4.781 -5.391,-5.609 -6.625,-8.918 -2.469,-6.621 1.094,-10.019 4.188,-10.176 3.82,-0.203 6.488,3.262 4.73,7.688 7.32,-5.367 0.945,-13.227 -4.73,-13.227 -8.633,0 -15.656,10.898 -15.656,19.535 v 0.035 c -3.328,0.09 -5.996,2.801 -5.996,6.152 0,3.406 2.762,6.172 6.172,6.172 0.539,0 1.051,-0.09 1.555,-0.223 v 19.574 h 30.34 v 36.902 H 791.23 c -0.277,-5.484 -6.184,-6.438 -7.598,-10.226 -2.836,-7.606 1.254,-11.504 4.805,-11.684 4.383,-0.227 7.445,3.742 5.43,8.816 8.398,-6.152 1.082,-15.172 -5.43,-15.172 -9.91,0 -17.965,12.508 -17.965,22.418 v 0.035 c -3.816,0.106 -6.883,3.215 -6.883,7.066 0,3.906 3.172,7.078 7.082,7.078 0.621,0 1.207,-0.106 1.781,-0.25 v 22.449 h 32.981 v 42.52 h -22.926 c -0.328,-6.465 -7.289,-7.578 -8.953,-12.047 -3.34,-8.953 1.477,-13.547 5.66,-13.766 5.16,-0.266 8.77,4.414 6.395,10.391 9.891,-7.254 1.273,-17.867 -6.395,-17.867 -11.676,0 -21.168,14.727 -21.168,26.398 l 0.004,0.047 c -4.5,0.121 -8.113,3.789 -8.113,8.316 0,4.609 3.738,8.348 8.348,8.348 0.73,0 1.426,-0.129 2.098,-0.305 v 17.02 c -5.043,0.457 -8.551,2.836 -8.551,14.262 0,1.172 0.051,2.316 0.125,3.445 h -14.863 c -0.371,-7.664 -8.219,-8.992 -10.094,-14.285 -3.766,-10.617 1.664,-16.063 6.379,-16.32 5.824,-0.316 9.891,5.231 7.215,12.316 11.148,-8.594 1.433,-21.188 -7.215,-21.188 -6.176,0 -11.809,3.848 -16.051,9.356 -1.332,-0.566 -2.727,-0.883 -4.094,-0.883 -13.168,0 -23.867,17.469 -23.867,31.309 l 0.004,0.055 c -5.074,0.145 -9.148,4.492 -9.148,9.863 0,5.461 4.211,9.894 9.41,9.894 0.82,0 1.605,-0.144 2.367,-0.359 v 13.871 h -42.098 v 17.5 6.273 c 11.625,2.039 23.746,-1.68 35.258,2.738 12.063,4.625 15.797,17.223 26.699,23.066 10.973,5.879 25.383,4.02 37.355,4.129 16.922,0.16 24.07,5.981 37.82,14.797 16.848,10.793 32.012,6.938 50.324,3.043 6.668,-1.418 12.809,-2.145 18.793,-2.332 v -51.715 -361.91 l -12.402,35.797 z"
   id="path10" />&#10;		<path
   style="fill:#1f2937;fill-opacity:1"
   d="m 1269.965,514.934 h -23.391 l 3.949,-37.906 h 5.805 c 0,-14.93 -1.855,-28.238 -5.418,-39.988 -2.672,-8.805 -6.309,-16.734 -10.836,-23.668 -6.773,-10.402 -15.613,-18.535 -25.559,-23.879 -9.941,-5.363 -20.875,-7.918 -31.648,-7.906 -14.688,0.004 -29.102,4.621 -41.621,12.887 -12.523,8.273 -23.215,20.277 -30.438,35.238 -4.313,8.938 -7.574,18.566 -10.145,28.66 -3.84,15.141 -6.125,31.367 -7.496,47.949 -1.367,16.578 -1.809,33.504 -1.813,49.902 0,5.047 0.047,10.035 0.117,14.957 -2.523,-6.652 -5.105,-10.914 -6.992,-10.914 -2.066,0 -2.332,5.105 -1.047,12.883 -4.02,-7.777 -8.277,-12.883 -11.309,-12.883 -4.516,0 -3.156,11.367 2.867,26.039 -2.262,0.387 -2.488,3.379 -0.902,7.832 -5.332,-4.777 -10.988,-7.906 -15.008,-7.906 -6.496,0 -3.863,8.172 5.898,18.258 4.523,4.672 9.254,8.93 13.387,12.156 -5.492,1.234 -8.938,2.883 -8.938,4.945 0,9.617 4.73,17.531 10.789,18.481 -0.027,0.555 -0.039,1.113 -0.039,1.68 0,6.016 1.387,11.344 3.527,14.746 -2.141,1.18 -3.527,3.039 -3.527,5.141 0,3.578 4.02,6.48 8.977,6.48 h 6.938 v 22.313 c -8.117,0.922 -14.043,2.633 -14.043,5.129 0,7.422 3.324,13.535 7.582,14.27 l -0.027,1.293 c 0,4.648 0.977,8.77 2.48,11.391 -1.504,0.914 -2.48,2.352 -2.48,3.969 0,2.766 2.828,5.004 6.309,5.004 h 5.184 v 23.637 c 7.641,-4.406 14.738,-9.406 21.633,-14.438 v -9.199 h 5.184 c 3.488,0 6.316,-2.238 6.316,-5.004 0,-1.617 -0.98,-3.055 -2.488,-3.973 1.508,-2.617 2.488,-6.738 2.488,-11.387 l -0.031,-1.293 c 4.258,-0.734 7.586,-6.848 7.586,-14.27 0,-2.496 -5.93,-4.207 -14.047,-5.129 v -22.313 h 6.941 c 4.957,0 8.977,-2.902 8.977,-6.48 0,-2.102 -1.387,-3.961 -3.531,-5.148 2.145,-3.395 3.531,-8.723 3.531,-14.738 0,-0.566 -0.016,-1.125 -0.043,-1.68 6.059,-0.949 10.789,-8.863 10.789,-18.481 0,-2.066 -3.445,-3.711 -8.938,-4.945 4.133,-3.226 8.867,-7.484 13.387,-12.156 9.762,-10.086 12.395,-18.258 5.898,-18.258 -4.02,0 -9.672,3.129 -15.008,7.906 1.594,-4.453 1.363,-7.449 -0.902,-7.832 6.027,-14.672 7.383,-26.039 2.871,-26.039 -3.031,0 -7.293,5.105 -11.309,12.883 1.281,-7.777 1.02,-12.883 -1.047,-12.883 -1.914,0 -4.547,4.375 -7.102,11.188 -0.242,-5.527 -1.367,-9.449 -3.285,-10.73 0,-1.5 -0.016,-2.996 -0.016,-4.5 0,-20.945 0.777,-42.336 3.219,-61.625 1.215,-9.645 2.844,-18.75 4.934,-26.961 2.082,-8.215 4.637,-15.527 7.563,-21.582 4.332,-8.977 10.504,-15.719 17.305,-20.211 6.801,-4.5 14.176,-6.668 20.895,-6.66 4.406,0.004 8.531,0.891 12.383,2.688 2.891,1.355 5.645,3.227 8.277,5.813 3.938,3.883 7.656,9.441 10.492,17.496 2.836,8.031 4.711,18.559 4.707,31.848 h 4.777 l 3.641,37.906 h -23.461 c -4.227,3.27 -9.125,7.656 -13.797,12.484 -9.762,10.078 -12.391,18.258 -5.898,18.258 4.02,0 9.68,-3.137 15.012,-7.91 -1.59,4.457 -1.359,7.449 0.902,7.832 -6.023,14.676 -7.383,26.035 -2.867,26.035 3.027,0 7.285,-5.102 11.309,-12.875 -1.285,7.773 -1.02,12.875 1.043,12.875 1.91,0 4.543,-4.371 7.098,-11.18 0.301,6.809 1.945,11.18 4.75,11.18 1.898,0 3.781,-2.047 5.426,-5.492 l 7.871,36.988 h -18.488 c -2.652,2.047 -5.723,4.801 -8.652,7.828 -6.125,6.324 -7.773,11.445 -3.699,11.445 2.52,0 6.063,-1.961 9.414,-4.957 -1,2.793 -0.855,4.672 0.563,4.914 -3.777,9.195 -4.629,16.328 -1.793,16.328 1.895,0 4.566,-3.203 7.09,-8.078 -0.809,4.875 -0.641,8.078 0.648,8.078 1.207,0 2.855,-2.742 4.453,-7.016 0.191,4.273 1.223,7.016 2.98,7.016 1.309,0 2.602,-1.539 3.703,-4.09 0.309,2.551 0.926,4.09 1.824,4.09 1.031,0 2.043,-2.043 2.859,-5.34 0.066,13.203 -0.574,28.488 -3.484,35.441 -1.34,3.211 -9.449,10.234 -9.449,10.234 l 1.461,2.191 5.145,-5.566 -3.781,7.066 1.875,1.606 3.031,-5.66 -1.762,6.82 2.16,0.875 2.668,-10.324 -0.223,10.379 2.891,0.058 0.215,-10.379 2.23,10.43 2.188,-0.781 -1.465,-6.887 2.785,5.781 1.938,-1.527 -3.473,-7.219 4.902,5.781 1.555,-2.133 -9.012,-10.621 -0.16,-38.16 c 0.871,4.793 2.129,7.934 3.41,7.934 0.898,0 1.516,-1.539 1.824,-4.09 1.102,2.551 2.391,4.09 3.703,4.09 1.758,0 2.789,-2.742 2.977,-7.016 1.602,4.273 3.25,7.016 4.453,7.016 1.289,0 1.457,-3.203 0.652,-8.078 2.52,4.875 5.191,8.078 7.094,8.078 2.828,0 1.977,-7.133 -1.801,-16.328 1.422,-0.242 1.566,-2.121 0.563,-4.914 3.348,2.996 6.895,4.957 9.418,4.957 4.074,0 2.418,-5.121 -3.703,-11.445 -2.926,-3.027 -6,-5.781 -8.648,-7.828 h -18.418 l 8.023,-36.516 c 1.59,3.16 3.383,5.02 5.203,5.02 2.805,0 4.445,-4.371 4.746,-11.18 2.559,6.809 5.184,11.18 7.098,11.18 2.066,0 2.328,-5.102 1.047,-12.875 4.02,7.773 8.277,12.875 11.309,12.875 4.516,0 3.16,-11.359 -2.867,-26.035 2.262,-0.383 2.492,-3.375 0.898,-7.832 5.336,4.773 10.996,7.91 15.016,7.91 6.488,0 3.855,-8.18 -5.902,-18.258 -4.678,-4.83 -9.569,-9.217 -13.799,-12.486 z"
   id="path11" />&#10;		<path
   style="fill:#1f2937;fill-opacity:1"
   d="m 1068.313,769.305 c 0,-13.84 -10.703,-31.309 -23.871,-31.309 -1.367,0 -2.762,0.316 -4.094,0.883 -4.242,-5.508 -9.875,-9.356 -16.055,-9.356 -8.645,0 -18.363,12.594 -7.207,21.188 -2.68,-7.086 1.387,-12.633 7.207,-12.316 4.719,0.258 10.148,5.703 6.383,16.32 -1.875,5.293 -9.723,6.621 -10.094,14.285 h -14.863 c 0.074,-1.129 0.125,-2.273 0.125,-3.445 0,-11.426 -3.508,-13.805 -8.551,-14.262 v -17.02 c 0.672,0.176 1.367,0.305 2.098,0.305 4.609,0 8.344,-3.738 8.344,-8.348 0,-4.527 -3.609,-8.195 -8.109,-8.316 l 0.004,-0.047 c 0,-11.672 -9.492,-26.398 -21.168,-26.398 -7.668,0 -16.285,10.613 -6.395,17.867 -2.375,-5.977 1.234,-10.656 6.395,-10.391 4.18,0.219 9,4.813 5.66,13.766 -1.664,4.469 -8.625,5.582 -8.953,12.047 h -22.93 v -42.52 h 32.984 v -22.449 c 0.57,0.144 1.164,0.25 1.781,0.25 3.91,0 7.082,-3.172 7.082,-7.078 0,-3.852 -3.066,-6.961 -6.883,-7.066 v -0.035 c 0,-9.91 -8.055,-22.418 -17.969,-22.418 -6.508,0 -13.82,9.019 -5.426,15.172 -2.016,-5.074 1.047,-9.043 5.426,-8.816 3.555,0.18 7.644,4.078 4.809,11.684 -1.414,3.789 -7.324,4.742 -7.602,10.226 h -24.348 v -36.902 h 30.34 v -19.574 c 0.504,0.133 1.019,0.223 1.555,0.223 3.41,0 6.172,-2.766 6.172,-6.172 0,-3.352 -2.672,-6.063 -5.996,-6.152 v -0.035 c 0,-8.637 -7.023,-19.535 -15.656,-19.535 -5.676,0 -12.051,7.859 -4.73,13.227 -1.762,-4.426 0.91,-7.891 4.73,-7.688 3.094,0.156 6.656,3.555 4.188,10.176 -1.238,3.309 -6.383,4.137 -6.625,8.918 h -13.977 v -33.856 h 17.465 v -16.461 l 1.309,0.188 c 2.867,0 5.191,-2.324 5.191,-5.195 0,-2.813 -2.246,-5.094 -5.047,-5.172 v -0.027 c 0,-7.266 -5.906,-16.434 -13.168,-16.434 -4.773,0 -10.137,6.609 -3.98,11.117 -1.477,-3.715 0.766,-6.625 3.98,-6.457 2.602,0.137 5.598,2.988 3.52,8.563 -1.035,2.777 -5.367,3.473 -5.566,7.492 h -4.254 c 0.344,-0.484 0.551,-1.074 0.551,-1.715 0,-1.613 -1.289,-2.922 -2.895,-2.969 v -0.016 c 0,-4.164 -3.387,-9.426 -7.551,-9.426 -2.738,0 -5.813,3.793 -2.285,6.379 -0.848,-2.133 0.441,-3.801 2.285,-3.707 1.492,0.078 3.211,1.715 2.02,4.914 -0.598,1.594 -3.082,1.992 -3.195,4.301 h -6.516 v -13.504 c 4.332,-1.601 7.43,-5.754 7.43,-10.648 0,-6.273 -5.09,-11.359 -11.363,-11.359 -2.195,0 -4.227,0.648 -5.965,1.727 l -0.133,-1.91 -12.402,-35.797 v 361.91 58.477 c 13.316,1.984 26.125,0.66 37.453,-8.395 11,-8.797 20.352,-15.305 34.156,-19.473 13.953,-4.207 25.273,-6.703 35.215,-18.473 14.519,-17.18 23.07,-38.031 41.516,-52.008 6.004,-4.547 12.629,-7.832 19.445,-10.762 -0.332,-0.051 -0.66,-0.129 -1.004,-0.137 z"
   id="path12" />&#10;		<path
   style="fill:#1f2937;fill-opacity:1"
   d="m 1548.563,586.231 c -4.016,0 -9.676,3.129 -15.012,7.906 1.594,-4.453 1.363,-7.445 -0.898,-7.832 6.023,-14.672 7.379,-26.039 2.859,-26.039 -3.023,0 -7.281,5.105 -11.301,12.883 1.285,-7.777 1.016,-12.883 -1.047,-12.883 -1.887,0 -4.469,4.262 -6.996,10.914 0.074,-4.922 0.121,-9.91 0.121,-14.957 0,-16.398 -0.445,-33.324 -1.813,-49.902 -1.375,-16.582 -3.656,-32.809 -7.496,-47.949 -2.574,-10.094 -5.836,-19.723 -10.145,-28.66 -7.227,-14.961 -17.918,-26.965 -30.438,-35.238 -12.523,-8.266 -26.938,-12.883 -41.617,-12.887 -10.781,-0.012 -21.715,2.543 -31.656,7.906 -9.945,5.344 -18.785,13.477 -25.559,23.879 -4.523,6.934 -8.164,14.863 -10.836,23.668 -3.559,11.75 -5.41,25.059 -5.418,39.988 h 5.805 l 3.949,37.906 h -23.387 c -4.227,3.27 -9.129,7.656 -13.801,12.484 -9.758,10.078 -12.395,18.258 -5.898,18.258 4.02,0 9.676,-3.137 15.012,-7.91 -1.59,4.457 -1.359,7.449 0.898,7.832 -6.023,14.676 -7.379,26.035 -2.859,26.035 3.027,0 7.281,-5.102 11.301,-12.875 -1.281,7.773 -1.02,12.875 1.051,12.875 1.91,0 4.539,-4.371 7.094,-11.18 0.305,6.809 1.941,11.18 4.746,11.18 1.82,0 3.617,-1.859 5.211,-5.02 l 8.016,36.516 h -18.414 c -2.656,2.047 -5.719,4.801 -8.656,7.828 -6.121,6.324 -7.766,11.445 -3.695,11.445 2.516,0 6.066,-1.961 9.414,-4.957 -0.996,2.793 -0.855,4.672 0.566,4.914 -3.785,9.195 -4.629,16.328 -1.797,16.328 1.898,0 4.57,-3.203 7.086,-8.078 -0.801,4.875 -0.637,8.078 0.656,8.078 1.199,0 2.848,-2.742 4.453,-7.016 0.188,4.273 1.219,7.016 2.977,7.016 1.309,0 2.602,-1.539 3.699,-4.09 0.313,2.551 0.93,4.09 1.828,4.09 1.277,0 2.535,-3.141 3.406,-7.934 l -0.16,38.16 -9.008,10.621 1.555,2.133 4.902,-5.781 -3.48,7.219 1.941,1.527 2.789,-5.781 -1.469,6.887 2.195,0.781 2.223,-10.43 0.219,10.379 2.887,-0.058 -0.215,-10.379 2.664,10.324 2.16,-0.875 -1.762,-6.82 3.027,5.66 1.879,-1.606 -3.785,-7.066 5.145,5.566 1.465,-2.191 c 0,0 -8.109,-7.023 -9.453,-10.234 -2.91,-6.953 -3.551,-22.238 -3.484,-35.441 0.813,3.297 1.832,5.34 2.859,5.34 0.898,0 1.52,-1.539 1.828,-4.09 1.098,2.551 2.395,4.09 3.699,4.09 1.762,0 2.789,-2.742 2.977,-7.016 1.602,4.273 3.258,7.016 4.457,7.016 1.293,0 1.457,-3.203 0.652,-8.078 2.523,4.875 5.188,8.078 7.09,8.078 2.832,0 1.98,-7.133 -1.797,-16.328 1.418,-0.242 1.563,-2.121 0.566,-4.914 3.344,2.996 6.895,4.957 9.414,4.957 4.07,0 2.422,-5.121 -3.699,-11.445 -2.93,-3.027 -6.004,-5.781 -8.656,-7.828 h -18.488 l 7.875,-36.988 c 1.641,3.445 3.523,5.492 5.43,5.492 2.801,0 4.441,-4.371 4.742,-11.18 2.555,6.809 5.188,11.18 7.098,11.18 2.063,0 2.332,-5.102 1.051,-12.875 4.016,7.773 8.273,12.875 11.301,12.875 4.52,0 3.164,-11.359 -2.863,-26.035 2.262,-0.383 2.492,-3.375 0.902,-7.832 5.336,4.773 10.988,7.91 15.008,7.91 6.496,0 3.863,-8.18 -5.902,-18.258 -4.668,-4.828 -9.566,-9.215 -13.789,-12.484 h -23.469 l 3.652,-37.906 h 4.77 c 0,-13.289 1.879,-23.816 4.707,-31.848 2.84,-8.055 6.563,-13.613 10.496,-17.496 2.629,-2.586 5.383,-4.457 8.273,-5.813 3.852,-1.797 7.98,-2.684 12.391,-2.688 6.715,-0.008 14.09,2.16 20.891,6.66 6.797,4.492 12.969,11.234 17.301,20.211 2.926,6.055 5.48,13.367 7.566,21.582 2.09,8.211 3.715,17.316 4.938,26.961 2.434,19.289 3.215,40.68 3.211,61.625 0,1.504 0,3 -0.016,4.5 -1.914,1.281 -3.039,5.203 -3.289,10.73 -2.551,-6.813 -5.18,-11.188 -7.094,-11.188 -2.066,0 -2.324,5.105 -1.051,12.883 -4.02,-7.777 -8.273,-12.883 -11.301,-12.883 -4.52,0 -3.16,11.367 2.863,26.039 -2.262,0.383 -2.488,3.379 -0.902,7.832 -5.336,-4.777 -10.988,-7.906 -15.012,-7.906 -6.492,0 -3.859,8.172 5.898,18.258 4.531,4.672 9.262,8.93 13.391,12.156 -5.492,1.234 -8.941,2.879 -8.941,4.945 0,9.617 4.734,17.531 10.793,18.481 -0.02,0.555 -0.039,1.113 -0.039,1.68 0,6.016 1.391,11.344 3.527,14.738 -2.137,1.188 -3.527,3.047 -3.527,5.148 0,3.578 4.02,6.48 8.977,6.48 h 6.938 v 22.313 c -8.113,0.922 -14.043,2.633 -14.043,5.129 0,7.422 3.328,13.535 7.59,14.27 l -0.031,1.293 c 0,4.648 0.977,8.77 2.48,11.387 -1.508,0.918 -2.48,2.355 -2.48,3.973 0,2.766 2.824,5.004 6.309,5.004 h 5.184 v 44.832 16.371 13.606 c 7.258,2.965 14.473,6.031 21.637,9.23 v -22.836 -16.371 -44.832 h 5.184 c 3.484,0 6.309,-2.238 6.309,-5.004 0,-1.617 -0.98,-3.055 -2.48,-3.969 1.5,-2.621 2.48,-6.742 2.48,-11.391 l -0.031,-1.293 c 4.262,-0.734 7.586,-6.848 7.586,-14.27 0,-2.496 -5.93,-4.207 -14.047,-5.129 v -22.313 h 6.941 c 4.957,0 8.977,-2.902 8.977,-6.48 0,-2.102 -1.387,-3.961 -3.531,-5.141 2.145,-3.402 3.531,-8.73 3.531,-14.746 0,-0.566 -0.016,-1.125 -0.043,-1.68 6.059,-0.949 10.789,-8.863 10.789,-18.481 0,-2.063 -3.438,-3.711 -8.938,-4.945 4.137,-3.226 8.867,-7.484 13.391,-12.156 9.754,-10.085 12.387,-18.256 5.895,-18.256 z"
   id="path13" />&#10;	</g>&#10;	<g
   id="g16">&#10;		<path
   style="fill:#10b981;fill-opacity:1"
   d="m 1884.457,1102.488 c -0.398,-24.563 4.688,-52.316 -21.09,-65.449 -20.273,-10.328 -46.422,-9.391 -60.371,-29.809 -13.527,-19.805 -18.977,-36.336 -41.559,-48.613 -23.492,-12.777 -44.168,-23.074 -64.672,-40.715 -16.703,-14.367 -34.402,-26.762 -53.043,-37.668 -4.68,-2.738 -9.43,-5.375 -14.23,-7.926 -11.816,-6.273 -23.965,-12.047 -36.512,-17.305 -29.258,-12.242 -57.543,-26.574 -86.434,-39.481 -7.164,-3.199 -14.379,-6.266 -21.637,-9.23 -9.391,-3.836 -18.852,-7.496 -28.496,-10.746 -6.871,-2.309 -13.77,-4.539 -20.66,-6.789 l -70.934,-26.797 c -15.559,-2.027 -32.68,-0.91 -47.32,-7.223 -13.559,-5.852 -17.637,-17.891 -28.402,-26.391 -11.145,-8.801 -22.02,-4.074 -34.781,-3.797 -16.309,0.359 -30.523,-8.688 -46.008,-12.438 -37.375,-9.047 -60.113,9.973 -85.578,28.57 -6.895,5.031 -13.992,10.031 -21.633,14.438 -3.301,1.906 -6.699,3.711 -10.234,5.352 -7.066,3.277 -14.414,5.949 -21.555,9.023 -6.816,2.93 -13.441,6.215 -19.445,10.762 -18.445,13.977 -26.996,34.828 -41.516,52.008 -9.941,11.77 -21.262,14.266 -35.215,18.473 -13.805,4.168 -23.156,10.676 -34.156,19.473 -11.328,9.055 -24.137,10.379 -37.453,8.395 -3.723,-0.547 -7.477,-1.344 -11.254,-2.324 -12.223,-3.152 -22.867,-4.789 -34.117,-4.438 -5.984,0.188 -12.125,0.914 -18.793,2.332 -18.313,3.895 -33.477,7.75 -50.324,-3.043 -13.75,-8.816 -20.898,-14.637 -37.82,-14.797 -11.973,-0.109 -26.383,1.75 -37.355,-4.129 -10.902,-5.844 -14.637,-18.441 -26.699,-23.066 -11.512,-4.418 -23.633,-0.699 -35.258,-2.738 -0.91,-0.156 -1.824,-0.273 -2.727,-0.516 -10.371,-2.742 -18.066,-10.063 -28.637,-11.902 -1.336,-0.23 -2.699,-0.406 -4.141,-0.445 -13.07,-0.32 -24.754,9.019 -37.727,7.91 -12.625,-1.078 -19.289,-6.305 -32.84,-2.438 -0.172,0.879 -0.363,1.75 -0.574,2.617 -9.305,-0.539 -6.039,-14.078 -1.766,-18.566 6.57,-6.891 15.949,-5.027 23.902,-8.273 3.652,-19.547 -16.285,-10.91 -24.656,-4.481 -7.375,5.664 -8.848,6.352 -17.394,5.035 -6.137,-0.941 -11.297,-3.992 -17.762,-0.652 -7.484,3.867 -5.016,10.473 -9.813,15.531 -2.688,2.836 -15.844,8.703 -19.641,8.723 -0.094,0 -0.176,-0.012 -0.27,-0.012 -16.641,-0.109 -21.656,-16.73 -19.191,-29.644 2.203,-11.57 2.48,-16.496 -3.621,-20.305 -2.191,-1.359 -5.176,-2.586 -9.219,-3.918 -2.703,-0.887 -5.395,-1.594 -8.082,-2.234 -9.445,-2.234 -18.785,-3.394 -28.09,-6.758 -18.977,-6.859 -31.82,-13.293 -51.352,-4.867 -20.762,8.953 -16.613,24.445 -5.867,42.461 9.684,16.223 2.07,18.086 -8.492,31.125 -4.352,5.363 -4.555,13.109 -14.043,11.434 -8.699,-1.539 -10.125,-13.285 -20.508,-12.508 8.168,67.883 16.484,142.063 54.332,200.836 16.988,26.391 39.969,48.547 60.582,72.039 26.996,30.762 54.461,65.863 92.867,82.801 34.551,15.246 68.078,6.516 103.324,-0.352 44.074,-8.594 88.199,-5.145 130.426,10.434 34.563,12.754 61.563,38.375 95.191,51.688 35.254,13.961 70.461,19.691 101.648,43.457 24.09,18.355 34.957,45.184 56.102,65.727 27.355,26.578 59.152,47.918 85.551,75.691 6.074,6.391 10.664,10.641 13.188,19.293 2.809,9.637 1.668,18.602 10.684,25.367 17.957,13.492 14.813,26.094 16.781,47.195 2.461,-0.395 6.125,1.039 8.57,0.555 -4.508,11.063 -11.129,21.809 -9.285,34.016 1.891,12.477 9.707,22.078 -4.473,30.953 -14.625,9.156 -24.977,-1.27 -38.262,-5.422 -14.492,-4.535 -19.023,5.746 -25.504,17.246 -7.109,12.609 -14.727,21.078 -26.684,29.352 -8.387,5.801 -28.184,12.98 -29.98,24.395 -2.258,14.316 17.781,24.352 28.652,27.305 16.043,4.352 23.293,8.988 37.066,18.582 19.59,13.648 32.543,2.266 53.371,3.469 10.063,0.582 20.223,5.043 30.527,5.789 10.402,0.754 20.77,-0.078 31.164,-0.281 21.445,-0.414 41.266,7.715 57.555,-12.203 4.027,-4.922 3.555,-9.77 5.691,-15.172 2.703,-6.832 6.969,-9.637 6.105,-17.184 -0.801,-7.016 -3.754,-11.035 -3.625,-18.547 0.277,-17.211 -5.801,-14.391 -13.145,-27.535 -5.527,-9.887 3.703,-29.398 -6.324,-36.395 -9.691,2.906 -14.754,13.613 -16.055,23.012 -0.949,6.855 7.824,33.168 -5.668,32.004 -4.121,-0.355 -13.898,-18.074 -16.426,-23.004 -8.742,-17.074 -11.605,-38.059 1.801,-52.078 12.813,-13.41 23.652,-23.301 42.129,-28.215 9.148,-2.434 14.754,-4.305 21.504,-10.84 3.48,-3.379 4.926,-7.055 9.961,-9.949 5.805,-3.328 19.359,-3.816 23.828,-8.219 7.004,-6.906 -0.852,-16.391 -0.566,-25.344 0.281,-8.883 3.93,-11.078 8.766,-17.992 13.52,-19.336 36.531,-30.086 47.086,-50.586 10.98,-21.313 29.016,-42.105 52.133,-51.039 24.457,-9.449 52.723,-10.77 78.324,-5.914 21.168,4.02 40.793,11.426 61.871,2.309 18.949,-8.195 30.738,-24.488 32.207,-44.883 1.066,-14.77 2.094,-22.496 14.035,-32.648 40.48,-34.394 92.699,-6.305 135.977,-28.836 8.84,-4.605 13.969,-11.984 20.367,-19.273 8.715,-9.926 18.766,-16.836 30.918,-22.07 18.469,-7.953 38.441,-12.137 57.91,-16.84 15.371,-3.711 34.855,-6.414 47.855,-16.203 19.224,-14.476 7.341,-47.382 7.013,-67.722 z"
   id="path14" />&#10;		<path
   style="fill:#1f2937;fill-opacity:1"
   d="m 1785.109,1525.582 c -5.762,-10.531 -20.887,-10.93 -25.789,-22.566 -5.168,-12.27 3.207,-26.641 -2.352,-39.078 -4.547,-10.176 -14.52,-12.895 -24.871,-13.129 l -33.102,4.727 c -14.41,4.414 -28.043,7.922 -41.773,0.105 -9.5,-5.41 -13.988,-10.977 -25.496,-7.316 -18.102,5.758 -38.426,17.508 -41.879,37.02 -1.918,10.84 -1.625,20.957 -7.535,30.668 -4.66,7.645 -16.078,15.887 -14.648,25.969 1.543,10.961 15.563,13.5 23.59,17.992 9.762,5.461 12.441,13.379 19.523,21.246 8.629,9.586 20.637,10.484 31.945,15.195 14.719,6.137 21.645,17.957 30.055,30.746 15.867,24.129 32.668,23.699 59.148,26.773 9.508,1.105 27.383,4.395 34.07,-5 4.957,-6.961 0.793,-16.898 6.039,-24.609 7.004,-10.293 23.816,-14.203 28.25,-26.285 4.199,-11.438 -7.801,-22.301 -11.293,-32.527 -4.296,-12.591 2.361,-28.529 -3.882,-39.931 z"
   id="path15" />&#10;		<path
   style="fill:#1f2937;fill-opacity:1"
   d="m 1544.52,1460.266 c -12.449,-2.359 -11.512,7.508 -15.074,15.504 -4.852,10.898 -10.152,6.258 -20.16,9.426 -6.926,2.188 -17,11.441 -12.594,20.02 3.211,6.258 13.832,4.867 18.633,10.398 5.785,6.668 7.898,15.109 19.648,7.07 8.02,-5.48 6.27,-14.875 10.258,-22.695 7.082,-13.867 27.133,-19.605 27.66,-36.57 z"
   id="path16" />&#10;	</g>&#10;</g></g></svg>
